<svg xmlns="http://www.w3.org/2000/svg" version="1.1" xmlns:xlink="http://www.w3.org/1999/xlink" xmlns:svgjs="http://svgjs.dev/svgjs" width="1000" height="1000" viewBox="0 0 1000 1000"><rect width="1000" height="1000" fill="#000000"></rect><g transform="matrix(0.7,0,0,0.7,149.57575757575756,425.23283437262944)"><svg viewBox="0 0 396 85" data-background-color="#ffffff" preserveAspectRatio="xMidYMid meet" height="214" width="1000" xmlns="http://www.w3.org/2000/svg" xmlns:xlink="http://www.w3.org/1999/xlink"><defs></defs><g id="tight-bounds" transform="matrix(1,0,0,1,0.2400000000000091,-0.07537330890187377)"><svg viewBox="0 0 395.52 85.15073705878054" height="85.15073705878054" width="395.52"><g><svg viewBox="0 0 602.6179627021462 129.73645754689642" height="85.15073705878054" width="395.52"><g transform="matrix(1,0,0,1,207.09796270214622,17.930291889621728)"><svg viewBox="0 0 395.52 93.87587376765296" height="93.87587376765296" width="395.52"><g><svg viewBox="0 0 395.52 93.87587376765296" height="93.87587376765296" width="395.52"><g><svg viewBox="0 0 395.52 62.69685197588746" height="62.69685197588746" width="395.52"><g transform="matrix(1,0,0,1,0,0)"><svg width="395.52" viewBox="-0.05000000447034836 -34.900001525878906 224.6300048828125 35.5" height="62.69685197588746" data-palette-color="#3aafb9"><g class="undefined-text-0" data-fill-palette-color="primary" id="text-0"><path d="M-0.05 0L10.85-34.3 16.5-34.3 27.4 0 22.65 0 20.3-7.65 6.7-7.65 4.35 0-0.05 0ZM7.9-11.65L19.05-11.65 14.4-26.9Q14.05-28 13.6-30.7L13.6-30.7 13.4-30.7Q12.95-27.95 12.6-26.9L12.6-26.9 7.9-11.65ZM42.15 0.6Q36.8 0.6 33.82-2.43 30.85-5.45 30.85-11.15L30.85-11.15 30.85-34.3 35.25-34.3 35.25-10.9Q35.25-7.3 37.07-5.38 38.9-3.45 42.15-3.45L42.15-3.45Q45.4-3.45 47.22-5.38 49.05-7.3 49.05-10.9L49.05-10.9 49.05-34.3 53.45-34.3 53.45-11.15Q53.45-5.45 50.47-2.43 47.5 0.6 42.15 0.6L42.15 0.6ZM67.25 0L67.25-30.3 57.9-30.3 57.9-34.3 81-34.3 81-30.3 71.65-30.3 71.65 0 67.25 0ZM97.94 0.6Q91.54 0.6 87.99-3.9 84.44-8.4 84.44-17.15L84.44-17.15Q84.44-25.9 87.99-30.4 91.54-34.9 97.94-34.9L97.94-34.9Q104.34-34.9 107.89-30.4 111.44-25.9 111.44-17.15L111.44-17.15Q111.44-8.4 107.89-3.9 104.34 0.6 97.94 0.6L97.94 0.6ZM97.94-3.45Q102.14-3.45 104.49-6.6 106.84-9.75 106.84-15.9L106.84-15.9 106.84-18.4Q106.84-24.55 104.49-27.7 102.14-30.85 97.94-30.85L97.94-30.85Q93.74-30.85 91.39-27.7 89.04-24.55 89.04-18.4L89.04-18.4 89.04-15.9Q89.04-9.75 91.39-6.6 93.74-3.45 97.94-3.45L97.94-3.45ZM117.14 0L117.14-34.3 130.14-34.3Q133.99-34.3 136.49-31.98 138.99-29.65 138.99-25.9L138.99-25.9Q138.99-23.05 137.52-20.93 136.04-18.8 133.74-18L133.74-18 133.74-17.8Q136.39-17 138.09-14.65 139.79-12.3 139.79-9.1L139.79-9.1Q139.79-6.3 138.49-4.25 137.19-2.2 134.99-1.1 132.79 0 130.14 0L130.14 0 117.14 0ZM121.54-19.55L128.84-19.55Q131.29-19.55 132.84-21.13 134.39-22.7 134.39-24.95L134.39-24.95Q134.39-27.6 132.99-28.95 131.59-30.3 129.14-30.3L129.14-30.3 121.54-30.3 121.54-19.55ZM121.54-4L129.54-4Q132.04-4 133.62-5.5 135.19-7 135.19-9.7L135.19-9.7Q135.19-12.1 133.54-13.83 131.89-15.55 129.24-15.55L129.24-15.55 121.54-15.55 121.54-4ZM144.74 0L144.74-34.3 149.14-34.3 149.14-4 163.14-4 163.14 0 144.74 0ZM179.99 0.6Q173.59 0.6 170.04-3.9 166.49-8.4 166.49-17.15L166.49-17.15Q166.49-25.9 170.04-30.4 173.59-34.9 179.99-34.9L179.99-34.9Q186.39-34.9 189.94-30.4 193.49-25.9 193.49-17.15L193.49-17.15Q193.49-8.4 189.94-3.9 186.39 0.6 179.99 0.6L179.99 0.6ZM179.99-3.45Q184.19-3.45 186.54-6.6 188.89-9.75 188.89-15.9L188.89-15.9 188.89-18.4Q188.89-24.55 186.54-27.7 184.19-30.85 179.99-30.85L179.99-30.85Q175.79-30.85 173.44-27.7 171.09-24.55 171.09-18.4L171.09-18.4 171.09-15.9Q171.09-9.75 173.44-6.6 175.79-3.45 179.99-3.45L179.99-3.45ZM211.18-14L211.18-17.85 224.58-17.85 224.58 0 221.68 0 220.73-3.8Q217.73 0.6 211.88 0.6L211.88 0.6Q205.33 0.6 201.86-3.85 198.38-8.3 198.38-17.15L198.38-17.15Q198.38-25.9 201.98-30.4 205.58-34.9 212.13-34.9L212.13-34.9Q217.73-34.9 221.16-31.75 224.58-28.6 224.58-22.6L224.58-22.6 220.08-22.6Q220.08-26.75 217.96-28.8 215.83-30.85 212.13-30.85L212.13-30.85Q207.78-30.85 205.38-27.7 202.98-24.55 202.98-18.4L202.98-18.4 202.98-15.9Q202.98-9.7 205.26-6.58 207.53-3.45 211.88-3.45L211.88-3.45Q216.13-3.45 218.11-5.85 220.08-8.25 220.08-13.2L220.08-13.2 220.08-14 211.18-14Z" fill="#ffffff" data-fill-palette-color="primary"></path></g></svg></g></svg></g><g transform="matrix(1,0,0,1,0,77.49807400294708)"><svg viewBox="0 0 232.209792 16.377799764705884" height="16.377799764705884" width="232.209792"><g transform="matrix(1,0,0,1,0,0)"><svg width="232.209792" viewBox="2 -36 516.77001953125 36.45000076293945" height="16.377799764705884" data-palette-color="#093a3e"><path d="M17.15 0L17.15 0 6.2 0Q3.7 0 2.85-0.35 2-0.7 2-1.45L2-1.45 2-33.6Q2-36 16.45-36L16.45-36Q24.75-36 27.9-34.4L27.9-34.4Q31.1-32.75 32-30.2L32-30.2Q32.5-28.7 32.5-26.7L32.5-26.7Q32.5-22.8 31.18-20.85 29.85-18.9 28.3-18.65L28.3-18.65Q30.65-18.15 32.2-16.35 33.75-14.55 33.75-10.25L33.75-10.25Q33.75-5.25 30.7-2.85L30.7-2.85Q28.05-0.75 22.6-0.2L22.6-0.2Q20.3 0 17.15 0ZM15.95-21.8L17.2-21.8Q19.75-21.8 19.75-25.2L19.75-25.2Q19.75-26.9 19.07-27.73 18.4-28.55 17.55-28.55L17.55-28.55 15.95-28.55 15.95-21.8ZM15.95-14.2L15.95-7.45 17.2-7.45Q19.75-7.45 19.75-10.85L19.75-10.85Q19.75-12.55 19.07-13.38 18.4-14.2 17.55-14.2L17.55-14.2 15.95-14.2ZM50-15.8L50-15.8 50-1.2Q50-0.65 47.17-0.33 44.35 0 41.32 0 38.3 0 37.4-0.28 36.5-0.55 36.5-1.2L36.5-1.2 36.5-25.85Q36.5-26.8 39.27-27.9 42.05-29 45.32-29 48.6-29 49-27.2L49-27.2 49.5-24.9 49.85-24.9Q50.55-26.8 53.2-28.13 55.85-29.45 58.5-29.45 61.15-29.45 62.22-28.6 63.3-27.75 63.3-26.43 63.3-25.1 63.1-23.05 62.9-21 62.12-18.6 61.35-16.2 60.1-16.2L60.1-16.2Q59.6-16.2 56.95-16.95 54.3-17.7 52.57-17.7 50.85-17.7 50.42-17.2 50-16.7 50-15.8ZM79.3-15.8L79.3-15.8 79.3-1.2Q79.3-0.65 76.47-0.33 73.65 0 70.62 0 67.59 0 66.7-0.28 65.8-0.55 65.8-1.2L65.8-1.2 65.8-25.85Q65.8-26.8 68.57-27.9 71.34-29 74.62-29 77.9-29 78.3-27.2L78.3-27.2 78.8-24.9 79.15-24.9Q79.84-26.8 82.5-28.13 85.15-29.45 87.8-29.45 90.45-29.45 91.52-28.6 92.59-27.75 92.59-26.43 92.59-25.1 92.4-23.05 92.2-21 91.42-18.6 90.65-16.2 89.4-16.2L89.4-16.2Q88.9-16.2 86.25-16.95 83.59-17.7 81.87-17.7 80.15-17.7 79.72-17.2 79.3-16.7 79.3-15.8ZM108.59-15.8L108.59-15.8 108.59-1.2Q108.59-0.65 105.77-0.33 102.94 0 99.92 0 96.89 0 95.99-0.28 95.09-0.55 95.09-1.2L95.09-1.2 95.09-25.85Q95.09-26.8 97.87-27.9 100.64-29 103.92-29 107.19-29 107.59-27.2L107.59-27.2 108.09-24.9 108.44-24.9Q109.14-26.8 111.79-28.13 114.44-29.45 117.09-29.45 119.74-29.45 120.82-28.6 121.89-27.75 121.89-26.43 121.89-25.1 121.69-23.05 121.49-21 120.72-18.6 119.94-16.2 118.69-16.2L118.69-16.2Q118.19-16.2 115.54-16.95 112.89-17.7 111.17-17.7 109.44-17.7 109.02-17.2 108.59-16.7 108.59-15.8ZM134.44 0.45L134.44 0.45Q128.84 0.45 126.61-2.45 124.39-5.35 124.39-12.55L124.39-12.55 124.39-26.15Q124.39-27.15 127.34-28.08 130.29-29 133.54-29L133.54-29Q137.89-29 137.89-26.75L137.89-26.75 137.89-14.05Q137.89-10.25 138.19-8.53 138.49-6.8 139.69-6.8L139.69-6.8Q141.29-6.8 141.29-8.15L141.29-8.15 141.29-26.15Q141.29-27.2 144.39-28.1 147.49-29 151.14-29 154.79-29 154.79-27.05L154.79-27.05 154.79-1.3Q154.79-0.6 151.64-0.3 148.49 0 145.44 0 142.39 0 142.34-0.8L142.34-0.8 141.84-4.05 141.44-4.05Q140.99-2.25 139.64-1.1L139.64-1.1Q138.94-0.5 137.56-0.03 136.19 0.45 134.44 0.45ZM203.84-16.5L203.84-16.5 203.84-1.2Q203.84-0.65 201.01-0.33 198.19 0 195.16 0 192.14 0 191.24-0.28 190.34-0.55 190.34-1.2L190.34-1.2 190.34-15.05Q190.34-22.2 188.89-22.2L188.89-22.2Q188.54-22.2 188.19-21.9 187.84-21.6 187.84-20.85L187.84-20.85 187.84-1.2Q187.84-0.65 185.01-0.33 182.19 0 179.14 0 176.09 0 175.21-0.28 174.34-0.55 174.34-1.2L174.34-1.2 174.34-15.05Q174.34-20.6 173.64-21.7L173.64-21.7Q173.29-22.2 172.74-22.2L172.74-22.2Q171.79-22.2 171.79-20.85L171.79-20.85 171.79-1.2Q171.79-0.65 168.94-0.33 166.09 0 163.06 0 160.04 0 159.16-0.28 158.29-0.55 158.29-1.2L158.29-1.2 158.29-25.85Q158.29-26.9 161.16-27.95 164.04-29 167.24-29 170.44-29 170.84-27.15L170.84-27.15 171.29-24.95 171.64-24.95Q173.09-27.8 176.44-29L176.44-29Q177.84-29.45 180.04-29.45L180.04-29.45Q184.44-29.45 186.44-24.95L186.44-24.95Q187.09-26.45 189.69-27.95 192.29-29.45 195.44-29.45L195.44-29.45Q200.39-29.45 202.11-26.38 203.84-23.3 203.84-16.5ZM252.89-16.5L252.89-16.5 252.89-1.2Q252.89-0.65 250.06-0.33 247.24 0 244.21 0 241.19 0 240.29-0.28 239.39-0.55 239.39-1.2L239.39-1.2 239.39-15.05Q239.39-22.2 237.94-22.2L237.94-22.2Q237.59-22.2 237.24-21.9 236.89-21.6 236.89-20.85L236.89-20.85 236.89-1.2Q236.89-0.65 234.06-0.33 231.24 0 228.19 0 225.14 0 224.26-0.28 223.39-0.55 223.39-1.2L223.39-1.2 223.39-15.05Q223.39-20.6 222.69-21.7L222.69-21.7Q222.34-22.2 221.78-22.2L221.78-22.2Q220.84-22.2 220.84-20.85L220.84-20.85 220.84-1.2Q220.84-0.65 217.99-0.33 215.14 0 212.11 0 209.09 0 208.21-0.28 207.34-0.55 207.34-1.2L207.34-1.2 207.34-25.85Q207.34-26.9 210.21-27.95 213.09-29 216.28-29 219.49-29 219.89-27.15L219.89-27.15 220.34-24.95 220.69-24.95Q222.14-27.8 225.49-29L225.49-29Q226.89-29.45 229.09-29.45L229.09-29.45Q233.49-29.45 235.49-24.95L235.49-24.95Q236.14-26.45 238.74-27.95 241.34-29.45 244.49-29.45L244.49-29.45Q249.44-29.45 251.16-26.38 252.89-23.3 252.89-16.5ZM283.03 0L283.03 0 272.08 0Q269.58 0 268.73-0.35 267.88-0.7 267.88-1.45L267.88-1.45 267.88-33.6Q267.88-36 282.33-36L282.33-36Q290.63-36 293.78-34.4L293.78-34.4Q296.98-32.75 297.88-30.2L297.88-30.2Q298.38-28.7 298.38-26.7L298.38-26.7Q298.38-22.8 297.06-20.85 295.73-18.9 294.18-18.65L294.18-18.65Q296.53-18.15 298.08-16.35 299.63-14.55 299.63-10.25L299.63-10.25Q299.63-5.25 296.58-2.85L296.58-2.85Q293.93-0.75 288.48-0.2L288.48-0.2Q286.18 0 283.03 0ZM281.83-21.8L283.08-21.8Q285.63-21.8 285.63-25.2L285.63-25.2Q285.63-26.9 284.96-27.73 284.28-28.55 283.43-28.55L283.43-28.55 281.83-28.55 281.83-21.8ZM281.83-14.2L281.83-7.45 283.08-7.45Q285.63-7.45 285.63-10.85L285.63-10.85Q285.63-12.55 284.96-13.38 284.28-14.2 283.43-14.2L283.43-14.2 281.83-14.2ZM315.88-15.8L315.88-15.8 315.88-1.2Q315.88-0.65 313.05-0.33 310.23 0 307.2 0 304.18 0 303.28-0.28 302.38-0.55 302.38-1.2L302.38-1.2 302.38-25.85Q302.38-26.8 305.15-27.9 307.93-29 311.2-29 314.48-29 314.88-27.2L314.88-27.2 315.38-24.9 315.73-24.9Q316.43-26.8 319.08-28.13 321.73-29.45 324.38-29.45 327.03-29.45 328.1-28.6 329.18-27.75 329.18-26.43 329.18-25.1 328.98-23.05 328.78-21 328-18.6 327.23-16.2 325.98-16.2L325.98-16.2Q325.48-16.2 322.83-16.95 320.18-17.7 318.45-17.7 316.73-17.7 316.3-17.2 315.88-16.7 315.88-15.8ZM345.18-15.8L345.18-15.8 345.18-1.2Q345.18-0.65 342.35-0.33 339.53 0 336.5 0 333.48 0 332.58-0.28 331.68-0.55 331.68-1.2L331.68-1.2 331.68-25.85Q331.68-26.8 334.45-27.9 337.23-29 340.5-29 343.78-29 344.18-27.2L344.18-27.2 344.68-24.9 345.03-24.9Q345.73-26.8 348.38-28.13 351.03-29.45 353.68-29.45 356.33-29.45 357.4-28.6 358.48-27.75 358.48-26.43 358.48-25.1 358.28-23.05 358.08-21 357.3-18.6 356.53-16.2 355.28-16.2L355.28-16.2Q354.78-16.2 352.13-16.95 349.48-17.7 347.75-17.7 346.03-17.7 345.6-17.2 345.18-16.7 345.18-15.8ZM374.47-15.8L374.47-15.8 374.47-1.2Q374.47-0.65 371.65-0.33 368.82 0 365.8 0 362.77 0 361.87-0.28 360.97-0.55 360.97-1.2L360.97-1.2 360.97-25.85Q360.97-26.8 363.75-27.9 366.52-29 369.8-29 373.07-29 373.47-27.2L373.47-27.2 373.97-24.9 374.32-24.9Q375.02-26.8 377.67-28.13 380.32-29.45 382.97-29.45 385.62-29.45 386.7-28.6 387.77-27.75 387.77-26.43 387.77-25.1 387.57-23.05 387.37-21 386.6-18.6 385.82-16.2 384.57-16.2L384.57-16.2Q384.07-16.2 381.42-16.95 378.77-17.7 377.05-17.7 375.32-17.7 374.9-17.2 374.47-16.7 374.47-15.8ZM400.32 0.45L400.32 0.45Q394.72 0.45 392.5-2.45 390.27-5.35 390.27-12.55L390.27-12.55 390.27-26.15Q390.27-27.15 393.22-28.08 396.17-29 399.42-29L399.42-29Q403.77-29 403.77-26.75L403.77-26.75 403.77-14.05Q403.77-10.25 404.07-8.53 404.37-6.8 405.57-6.8L405.57-6.8Q407.17-6.8 407.17-8.15L407.17-8.15 407.17-26.15Q407.17-27.2 410.27-28.1 413.37-29 417.02-29 420.67-29 420.67-27.05L420.67-27.05 420.67-1.3Q420.67-0.6 417.52-0.3 414.37 0 411.32 0 408.27 0 408.22-0.8L408.22-0.8 407.72-4.05 407.32-4.05Q406.87-2.25 405.52-1.1L405.52-1.1Q404.82-0.5 403.45-0.03 402.07 0.45 400.32 0.45ZM469.72-16.5L469.72-16.5 469.72-1.2Q469.72-0.65 466.89-0.33 464.07 0 461.04 0 458.02 0 457.12-0.28 456.22-0.55 456.22-1.2L456.22-1.2 456.22-15.05Q456.22-22.2 454.77-22.2L454.77-22.2Q454.42-22.2 454.07-21.9 453.72-21.6 453.72-20.85L453.72-20.85 453.72-1.2Q453.72-0.65 450.89-0.33 448.07 0 445.02 0 441.97 0 441.09-0.28 440.22-0.55 440.22-1.2L440.22-1.2 440.22-15.05Q440.22-20.6 439.52-21.7L439.52-21.7Q439.17-22.2 438.62-22.2L438.62-22.2Q437.67-22.2 437.67-20.85L437.67-20.85 437.67-1.2Q437.67-0.65 434.82-0.33 431.97 0 428.94 0 425.92 0 425.04-0.28 424.17-0.55 424.17-1.2L424.17-1.2 424.17-25.85Q424.17-26.9 427.04-27.95 429.92-29 433.12-29 436.32-29 436.72-27.15L436.72-27.15 437.17-24.95 437.52-24.95Q438.97-27.8 442.32-29L442.32-29Q443.72-29.45 445.92-29.45L445.92-29.45Q450.32-29.45 452.32-24.95L452.32-24.95Q452.97-26.45 455.57-27.95 458.17-29.45 461.32-29.45L461.32-29.45Q466.27-29.45 467.99-26.38 469.72-23.3 469.72-16.5ZM518.77-16.5L518.77-16.5 518.77-1.2Q518.77-0.65 515.94-0.33 513.12 0 510.09 0 507.07 0 506.17-0.28 505.27-0.55 505.27-1.2L505.27-1.2 505.27-15.05Q505.27-22.2 503.82-22.2L503.82-22.2Q503.47-22.2 503.12-21.9 502.77-21.6 502.77-20.85L502.77-20.85 502.77-1.2Q502.77-0.65 499.94-0.33 497.12 0 494.07 0 491.02 0 490.14-0.28 489.27-0.55 489.27-1.2L489.27-1.2 489.27-15.05Q489.27-20.6 488.57-21.7L488.57-21.7Q488.22-22.2 487.67-22.2L487.67-22.2Q486.72-22.2 486.72-20.85L486.72-20.85 486.72-1.2Q486.72-0.65 483.87-0.33 481.02 0 477.99 0 474.97 0 474.09-0.28 473.22-0.55 473.22-1.2L473.22-1.2 473.22-25.85Q473.22-26.9 476.09-27.95 478.97-29 482.17-29 485.37-29 485.77-27.15L485.77-27.15 486.22-24.95 486.57-24.95Q488.02-27.8 491.37-29L491.37-29Q492.77-29.45 494.97-29.45L494.97-29.45Q499.37-29.45 501.37-24.95L501.37-24.95Q502.02-26.45 504.62-27.95 507.22-29.45 510.37-29.45L510.37-29.45Q515.32-29.45 517.04-26.38 518.77-23.3 518.77-16.5Z" opacity="1" transform="matrix(1,0,0,1,0,0)" fill="#ffffff" class="undefined-text-1" data-fill-palette-color="secondary" id="text-1"></path></svg></g></svg></g></svg></g></svg></g><g><svg viewBox="0 0 192.2967406750866 129.73645754689642" height="129.73645754689642" width="192.2967406750866"><g><svg xmlns="http://www.w3.org/2000/svg" xmlns:xlink="http://www.w3.org/1999/xlink" version="1.1" x="0" y="0" viewBox="4.927999973297119 19.75897789001465 89.65300750732422 60.48601531982422" enable-background="new 0 0 100 100" xml:space="preserve" height="129.73645754689642" width="192.2967406750866" class="icon-icon-0" data-fill-palette-color="accent" id="icon-0"><path d="M92.033 51.425c-0.02 0.377-0.023 0.759-0.058 1.132 0.824 0.591 2.369 1.258 2.299 1.75-0.071 0.498-1.74 0.706-2.696 1.039-0.072 0.375-0.17 0.738-0.258 1.107 0.726 0.703 2.18 1.594 2.039 2.074-0.143 0.484-1.847 0.447-2.839 0.645-0.124 0.357-0.249 0.711-0.389 1.061 0.621 0.803 1.926 1.887 1.717 2.34-0.207 0.457-1.878 0.182-2.889 0.232-0.175 0.336-0.361 0.666-0.548 0.992 0.498 0.881 1.635 2.141 1.363 2.561-0.272 0.423-1.892-0.094-2.898-0.185-0.22 0.306-0.444 0.607-0.676 0.904 0.368 0.943 1.315 2.353 0.986 2.731-0.329 0.377-1.854-0.359-2.837-0.591-0.263 0.272-0.529 0.539-0.804 0.802 0.234 0.984 0.969 2.51 0.592 2.838-0.379 0.329-1.789-0.62-2.73-0.988-0.297 0.23-0.599 0.456-0.904 0.676 0.089 1.008 0.604 2.629 0.182 2.9-0.421 0.271-1.681-0.866-2.562-1.364-0.327 0.188-0.656 0.372-0.992 0.547-0.053 1.01 0.224 2.679-0.232 2.888-0.454 0.209-1.537-1.097-2.337-1.716-0.35 0.139-0.704 0.263-1.061 0.388-0.198 0.991-0.162 2.697-0.646 2.84-0.48 0.141-1.369-1.315-2.073-2.043-0.368 0.089-0.731 0.187-1.105 0.26-0.334 0.955-0.543 2.626-1.039 2.696-0.492 0.07-1.158-1.477-1.75-2.299-0.372 0.032-0.752 0.037-1.13 0.057-0.47 0.893-0.918 2.546-1.426 2.546s-0.954-1.653-1.426-2.546c-0.378-0.02-0.758-0.024-1.131-0.057-0.593 0.822-1.258 2.369-1.749 2.299-0.498-0.072-0.706-1.741-1.04-2.696-0.374-0.073-0.737-0.171-1.105-0.26-0.706 0.728-1.595 2.181-2.074 2.04-0.484-0.142-0.448-1.848-0.647-2.84-0.356-0.123-0.711-0.249-1.061-0.387-0.801 0.618-1.885 1.924-2.341 1.718-0.456-0.21-0.178-1.88-0.229-2.891-0.336-0.175-0.663-0.359-0.991-0.548-0.88 0.498-2.141 1.638-2.562 1.366-0.422-0.272 0.095-1.895 0.183-2.903-0.306-0.219-0.607-0.442-0.903-0.675-0.942 0.367-2.354 1.316-2.732 0.989-0.378-0.329 0.358-1.856 0.591-2.84-0.273-0.262-0.539-0.528-0.801-0.802-0.985 0.233-2.511 0.971-2.84 0.591-0.328-0.379 0.622-1.79 0.99-2.731-0.231-0.297-0.457-0.598-0.675-0.903-1.007 0.09-2.629 0.604-2.902 0.182-0.271-0.421 0.868-1.681 1.367-2.562-0.188-0.326-0.374-0.654-0.548-0.99-1.01-0.053-2.68 0.224-2.889-0.234-0.208-0.453 1.098-1.537 1.718-2.336-0.138-0.35-0.264-0.705-0.388-1.06-0.991-0.198-2.698-0.161-2.839-0.646-0.141-0.479 1.314-1.368 2.04-2.072-0.087-0.368-0.185-0.731-0.258-1.106-0.955-0.334-2.625-0.541-2.696-1.039-0.069-0.49 1.477-1.157 2.3-1.75-0.034-0.373-0.038-0.753-0.058-1.13-0.893-0.471-2.545-0.917-2.545-1.426 0-0.508 1.653-0.954 2.545-1.425 0.021-0.377 0.023-0.758 0.058-1.131-0.824-0.591-2.37-1.257-2.3-1.748 0.07-0.5 1.741-0.708 2.696-1.042 0.073-0.375 0.171-0.739 0.259-1.108-0.727-0.706-2.181-1.595-2.04-2.074 0.142-0.484 1.848-0.448 2.838-0.646 0.125-0.356 0.25-0.71 0.389-1.059-0.62-0.8-1.925-1.884-1.718-2.339 0.208-0.457 1.879-0.179 2.889-0.231 0.175-0.334 0.36-0.664 0.548-0.991-0.498-0.88-1.636-2.14-1.365-2.563 0.273-0.421 1.893 0.094 2.901 0.184 0.219-0.307 0.444-0.608 0.676-0.904-0.37-0.942-1.318-2.352-0.989-2.73 0.328-0.38 1.854 0.357 2.838 0.591 0.263-0.274 0.53-0.541 0.803-0.802-0.233-0.985-0.969-2.51-0.591-2.84 0.38-0.33 1.79 0.62 2.733 0.989 0.295-0.231 0.597-0.457 0.903-0.677-0.089-1.006-0.605-2.628-0.182-2.9 0.421-0.271 1.681 0.868 2.562 1.366 0.327-0.189 0.655-0.373 0.99-0.548 0.053-1.009-0.223-2.679 0.233-2.888 0.454-0.209 1.537 1.097 2.338 1.717 0.349-0.14 0.704-0.263 1.061-0.389 0.198-0.991 0.161-2.696 0.645-2.837 0.479-0.141 1.367 1.313 2.073 2.04 0.368-0.088 0.731-0.186 1.106-0.259 0.335-0.956 0.543-2.625 1.039-2.696 0.491-0.07 1.158 1.477 1.749 2.299 0.372-0.033 0.754-0.038 1.13-0.056 0.472-0.892 0.918-2.544 1.426-2.544s0.954 1.652 1.426 2.544c0.376 0.019 0.758 0.023 1.131 0.056 0.591-0.822 1.257-2.369 1.749-2.299 0.498 0.072 0.707 1.742 1.042 2.696 0.375 0.073 0.738 0.171 1.106 0.259 0.704-0.726 1.595-2.18 2.074-2.038 0.485 0.141 0.447 1.846 0.645 2.837 0.356 0.123 0.712 0.249 1.062 0.387 0.8-0.62 1.884-1.924 2.34-1.718 0.456 0.21 0.177 1.879 0.229 2.89 0.336 0.173 0.664 0.359 0.992 0.548 0.881-0.5 2.141-1.638 2.561-1.366 0.424 0.274-0.092 1.894-0.181 2.902 0.306 0.219 0.608 0.444 0.905 0.677 0.942-0.37 2.354-1.317 2.731-0.989 0.378 0.329-0.359 1.854-0.592 2.837 0.272 0.263 0.539 0.531 0.801 0.802 0.986-0.231 2.512-0.968 2.84-0.588 0.327 0.378-0.62 1.788-0.988 2.731 0.231 0.295 0.456 0.596 0.675 0.903 1.008-0.09 2.628-0.606 2.9-0.184 0.271 0.42-0.866 1.679-1.366 2.56 0.189 0.328 0.374 0.658 0.549 0.994 1.011 0.051 2.68-0.224 2.888 0.232 0.209 0.454-1.097 1.54-1.716 2.339 0.139 0.348 0.263 0.703 0.388 1.059 0.991 0.199 2.697 0.161 2.838 0.646 0.142 0.478-1.312 1.367-2.039 2.073 0.088 0.367 0.185 0.732 0.258 1.107 0.957 0.333 2.624 0.541 2.694 1.036 0.07 0.493-1.475 1.16-2.299 1.75 0.034 0.373 0.038 0.753 0.058 1.129 0.894 0.473 2.546 0.918 2.546 1.426C94.579 50.508 92.927 50.954 92.033 51.425zM64.333 29.771c-11.17 0-20.228 9.058-20.228 20.228 0 11.173 9.058 20.228 20.228 20.228 11.173 0 20.229-9.055 20.229-20.228C84.562 38.828 75.506 29.771 64.333 29.771zM64.241 43.237V32.973c-3.739 0-7.195 1.21-10.003 3.255l6.034 8.308C61.388 43.723 62.757 43.237 64.241 43.237zM57.481 49.999c0-0.727 0.121-1.431 0.332-2.088l-9.763-3.174c-0.538 1.66-0.833 3.426-0.833 5.262 0 1.835 0.295 3.605 0.833 5.261l9.764-3.171C57.603 51.43 57.481 50.728 57.481 49.999zM70.672 47.911l9.763-3.174c-1.118-3.451-3.312-6.419-6.187-8.509l-6.035 8.308C69.354 45.365 70.228 46.54 70.672 47.911zM68.213 55.312l6.035 8.307c2.874-2.091 5.068-5.059 6.187-8.51l-9.763-3.172C70.228 53.307 69.354 54.48 68.213 55.312zM64.333 46.034c-2.104 0-3.813 1.708-3.813 3.813s1.709 3.812 3.813 3.812c2.106 0 3.814-1.707 3.814-3.812S66.439 46.034 64.333 46.034zM54.238 63.619c2.808 2.047 6.264 3.254 10.003 3.254V56.608c-1.484 0-2.854-0.483-3.969-1.298L54.238 63.619z" fill="#ffffff" data-fill-palette-color="accent"></path><g fill="#093a3e" data-fill-palette-color="accent"><path d="M28.907 40.077H26.35c-1.066 0-1.932-0.865-1.932-1.932 0-1.066 0.865-1.932 1.932-1.932h2.557c1.066 0 1.932 0.865 1.932 1.932C30.838 39.212 29.973 40.077 28.907 40.077z" fill="#ffffff" data-fill-palette-color="accent"></path><path d="M26.946 51.932H18.87c-1.066 0-1.932-0.865-1.932-1.932 0-1.066 0.865-1.932 1.932-1.932h8.077c1.066 0 1.932 0.865 1.932 1.932C28.878 51.066 28.013 51.932 26.946 51.932z" fill="#ffffff" data-fill-palette-color="accent"></path><path d="M24.984 63.785H6.86c-1.066 0-1.932-0.865-1.932-1.932s0.865-1.932 1.932-1.932h18.124c1.066 0 1.932 0.865 1.932 1.932S26.051 63.785 24.984 63.785z" fill="#ffffff" data-fill-palette-color="accent"></path></g></svg></g></svg></g></svg></g></svg><rect width="395.52" height="85.15073705878054" fill="none" stroke="none" visibility="hidden"></rect></g></svg></g></svg>