<?xml version="1.0"?>
<svg width="1000" height="214" xmlns="http://www.w3.org/2000/svg" xmlns:svg="http://www.w3.org/2000/svg" version="1.1">
 <g class="layer">
  <title>Layer 1</title>
  <g fill-opacity="0" id="svg_5" transform="matrix(1.00048 0 0 0.976459 -23.5334 555.244)">
   <svg data-background-color="#ffffff" fill="#000000" height="214" id="svg_6" preserveAspectRatio="xMidYMid meet" viewBox="0 0 396 85" width="1000" x="22.86" xmlns="http://www.w3.org/2000/svg" xmlns:xlink="http://www.w3.org/1999/xlink" y="-566.43">
    <g id="svg_7" transform="matrix(1,0,0,1,0.2400000000000091,-0.07537330890187377)">
     <g id="svg_9">
      <svg fill="#000000" height="85.15" id="svg_37" viewBox="0 0 395.52 85.15073705878054" width="395.52">
       <g id="svg_38">
        <svg fill="#000000" height="85.15" id="svg_64" viewBox="0 0 602.6179627021462 129.73645754689642" width="395.52">
         <g id="svg_74" transform="matrix(1,0,0,1,207.09796270214622,17.930291889621728)">
          <svg fill="#000000" height="93.88" id="svg_89" viewBox="0 0 395.52 93.87587376765296" width="395.52">
           <g id="svg_90">
            <svg fill="#000000" height="93.88" id="svg_103" viewBox="0 0 395.52 93.87587376765296" width="395.52">
             <g id="svg_109">
              <svg fill="#000000" height="62.7" id="svg_115" viewBox="0 0 395.52 62.69685197588746" width="395.52">
               <g id="svg_116" transform="matrix(1,0,0,1,0,0)">
                <svg data-palette-color="#3aafb9" fill="#000000" height="62.7" id="svg_120" viewBox="-0.05000000447034836 -34.900001525878906 224.6300048828125 35.5" width="395.52">
                 <g class="undefined-text-0" data-fill-palette-color="primary" id="svg_121">
                  <path d="m-0.05,0l10.9,-34.3l5.65,0l10.9,34.3l-4.75,0l-2.35,-7.65l-13.6,0l-2.35,7.65l-4.4,0zm7.95,-11.65l11.15,0l-4.65,-15.25q-0.35,-1.1 -0.8,-3.8l0,0l-0.2,0q-0.45,2.75 -0.8,3.8l0,0l-4.7,15.25zm34.25,12.25q-5.35,0 -8.33,-3.03q-2.97,-3.02 -2.97,-8.72l0,0l0,-23.15l4.4,0l0,23.4q0,3.6 1.82,5.52q1.83,1.93 5.08,1.93l0,0q3.25,0 5.07,-1.93q1.83,-1.92 1.83,-5.52l0,0l0,-23.4l4.4,0l0,23.15q0,5.7 -2.98,8.72q-2.97,3.03 -8.32,3.03l0,0zm25.1,-0.6l0,-30.3l-9.35,0l0,-4l23.1,0l0,4l-9.35,0l0,30.3l-4.4,0zm30.69,0.6q-6.4,0 -9.95,-4.5q-3.55,-4.5 -3.55,-13.25l0,0q0,-8.75 3.55,-13.25q3.55,-4.5 9.95,-4.5l0,0q6.4,0 9.95,4.5q3.55,4.5 3.55,13.25l0,0q0,8.75 -3.55,13.25q-3.55,4.5 -9.95,4.5l0,0zm0,-4.05q4.2,0 6.55,-3.15q2.35,-3.15 2.35,-9.3l0,0l0,-2.5q0,-6.15 -2.35,-9.3q-2.35,-3.15 -6.55,-3.15l0,0q-4.2,0 -6.55,3.15q-2.35,3.15 -2.35,9.3l0,0l0,2.5q0,6.15 2.35,9.3q2.35,3.15 6.55,3.15l0,0zm19.2,3.45l0,-34.3l13,0q3.85,0 6.35,2.32q2.5,2.33 2.5,6.08l0,0q0,2.85 -1.47,4.97q-1.48,2.13 -3.78,2.93l0,0l0,0.2q2.65,0.8 4.35,3.15q1.7,2.35 1.7,5.55l0,0q0,2.8 -1.3,4.85q-1.3,2.05 -3.5,3.15q-2.2,1.1 -4.85,1.1l0,0l-13,0zm4.4,-19.55l7.3,0q2.45,0 4,-1.58q1.55,-1.57 1.55,-3.82l0,0q0,-2.65 -1.4,-4q-1.4,-1.35 -3.85,-1.35l0,0l-7.6,0l0,10.75zm0,15.55l8,0q2.5,0 4.08,-1.5q1.57,-1.5 1.57,-4.2l0,0q0,-2.4 -1.65,-4.13q-1.65,-1.72 -4.3,-1.72l0,0l-7.7,0l0,11.55zm23.2,4l0,-34.3l4.4,0l0,30.3l14,0l0,4l-18.4,0zm35.25,0.6q-6.4,0 -9.95,-4.5q-3.55,-4.5 -3.55,-13.25l0,0q0,-8.75 3.55,-13.25q3.55,-4.5 9.95,-4.5l0,0q6.4,0 9.95,4.5q3.55,4.5 3.55,13.25l0,0q0,8.75 -3.55,13.25q-3.55,4.5 -9.95,4.5l0,0zm0,-4.05q4.2,0 6.55,-3.15q2.35,-3.15 2.35,-9.3l0,0l0,-2.5q0,-6.15 -2.35,-9.3q-2.35,-3.15 -6.55,-3.15l0,0q-4.2,0 -6.55,3.15q-2.35,3.15 -2.35,9.3l0,0l0,2.5q0,6.15 2.35,9.3q2.35,3.15 6.55,3.15l0,0zm31.19,-10.55l0,-3.85l13.4,0l0,17.85l-2.9,0l-0.95,-3.8q-3,4.4 -8.85,4.4l0,0q-6.55,0 -10.02,-4.45q-3.48,-4.45 -3.48,-13.3l0,0q0,-8.75 3.6,-13.25q3.6,-4.5 10.15,-4.5l0,0q5.6,0 9.03,3.15q3.42,3.15 3.42,9.15l0,0l-4.5,0q0,-4.15 -2.12,-6.2q-2.13,-2.05 -5.83,-2.05l0,0q-4.35,0 -6.75,3.15q-2.4,3.15 -2.4,9.3l0,0l0,2.5q0,6.2 2.28,9.32q2.27,3.13 6.62,3.13l0,0q4.25,0 6.23,-2.4q1.97,-2.4 1.97,-7.35l0,0l0,-0.8l-8.9,0z" data-fill-palette-color="primary" fill="#000000" id="svg_122"/>
                 </g>
                </svg>
               </g>
              </svg>
             </g>
             <g id="svg_104" transform="matrix(1,0,0,1,0,77.49807400294708)">
              <svg fill="#000000" height="16.38" id="svg_123" viewBox="0 0 232.209792 16.377799764705884" width="232.21">
               <g id="svg_124" transform="matrix(1,0,0,1,0,0)">
                <svg data-palette-color="#093a3e" fill="#000000" height="16.38" id="svg_127" viewBox="2 -36 516.77001953125 36.45000076293945" width="232.21">
                 <path class="undefined-text-1" d="m17.15,0l0,0l-10.95,0q-2.5,0 -3.35,-0.35q-0.85,-0.35 -0.85,-1.1l0,0l0,-32.15q0,-2.4 14.45,-2.4l0,0q8.3,0 11.45,1.6l0,0q3.2,1.65 4.1,4.2l0,0q0.5,1.5 0.5,3.5l0,0q0,3.9 -1.32,5.85q-1.33,1.95 -2.88,2.2l0,0q2.35,0.5 3.9,2.3q1.55,1.8 1.55,6.1l0,0q0,5 -3.05,7.4l0,0q-2.65,2.1 -8.1,2.65l0,0q-2.3,0.2 -5.45,0.2zm-1.2,-21.8l1.25,0q2.55,0 2.55,-3.4l0,0q0,-1.7 -0.68,-2.53q-0.67,-0.82 -1.52,-0.82l0,0l-1.6,0l0,6.75zm0,7.6l0,6.75l1.25,0q2.55,0 2.55,-3.4l0,0q0,-1.7 -0.68,-2.53q-0.67,-0.82 -1.52,-0.82l0,0l-1.6,0zm34.05,-1.6l0,0l0,14.6q0,0.55 -2.83,0.87q-2.82,0.33 -5.85,0.33q-3.02,0 -3.92,-0.28q-0.9,-0.27 -0.9,-0.92l0,0l0,-24.65q0,-0.95 2.77,-2.05q2.78,-1.1 6.05,-1.1q3.28,0 3.68,1.8l0,0l0.5,2.3l0.35,0q0.7,-1.9 3.35,-3.23q2.65,-1.32 5.3,-1.32q2.65,0 3.72,0.85q1.08,0.85 1.08,2.17q0,1.33 -0.2,3.38q-0.2,2.05 -0.98,4.45q-0.77,2.4 -2.02,2.4l0,0q-0.5,0 -3.15,-0.75q-2.65,-0.75 -4.38,-0.75q-1.72,0 -2.15,0.5q-0.42,0.5 -0.42,1.4zm29.3,0l0,0l0,14.6q0,0.55 -2.83,0.87q-2.82,0.33 -5.85,0.33q-3.03,0 -3.92,-0.28q-0.9,-0.27 -0.9,-0.92l0,0l0,-24.65q0,-0.95 2.77,-2.05q2.77,-1.1 6.05,-1.1q3.28,0 3.68,1.8l0,0l0.5,2.3l0.35,0q0.69,-1.9 3.35,-3.23q2.65,-1.32 5.3,-1.32q2.65,0 3.72,0.85q1.07,0.85 1.07,2.17q0,1.33 -0.19,3.38q-0.2,2.05 -0.98,4.45q-0.77,2.4 -2.02,2.4l0,0q-0.5,0 -3.15,-0.75q-2.66,-0.75 -4.38,-0.75q-1.72,0 -2.15,0.5q-0.42,0.5 -0.42,1.4zm29.29,0l0,0l0,14.6q0,0.55 -2.82,0.87q-2.83,0.33 -5.85,0.33q-3.03,0 -3.93,-0.28q-0.9,-0.27 -0.9,-0.92l0,0l0,-24.65q0,-0.95 2.78,-2.05q2.77,-1.1 6.05,-1.1q3.27,0 3.67,1.8l0,0l0.5,2.3l0.35,0q0.7,-1.9 3.35,-3.23q2.65,-1.32 5.3,-1.32q2.65,0 3.73,0.85q1.07,0.85 1.07,2.17q0,1.33 -0.2,3.38q-0.2,2.05 -0.97,4.45q-0.78,2.4 -2.03,2.4l0,0q-0.5,0 -3.15,-0.75q-2.65,-0.75 -4.37,-0.75q-1.73,0 -2.15,0.5q-0.43,0.5 -0.43,1.4zm25.85,16.25l0,0q-5.6,0 -7.83,-2.9q-2.22,-2.9 -2.22,-10.1l0,0l0,-13.6q0,-1 2.95,-1.93q2.95,-0.92 6.2,-0.92l0,0q4.35,0 4.35,2.25l0,0l0,12.7q0,3.8 0.3,5.52q0.3,1.73 1.5,1.73l0,0q1.6,0 1.6,-1.35l0,0l0,-18q0,-1.05 3.1,-1.95q3.1,-0.9 6.75,-0.9q3.65,0 3.65,1.95l0,0l0,25.75q0,0.7 -3.15,1q-3.15,0.3 -6.2,0.3q-3.05,0 -3.1,-0.8l0,0l-0.5,-3.25l-0.4,0q-0.45,1.8 -1.8,2.95l0,0q-0.7,0.6 -2.08,1.07q-1.37,0.48 -3.12,0.48zm69.4,-16.95l0,0l0,15.3q0,0.55 -2.83,0.87q-2.82,0.33 -5.85,0.33q-3.02,0 -3.92,-0.28q-0.9,-0.27 -0.9,-0.92l0,0l0,-13.85q0,-7.15 -1.45,-7.15l0,0q-0.35,0 -0.7,0.3q-0.35,0.3 -0.35,1.05l0,0l0,19.65q0,0.55 -2.83,0.87q-2.82,0.33 -5.87,0.33q-3.05,0 -3.93,-0.28q-0.87,-0.27 -0.87,-0.92l0,0l0,-13.85q0,-5.55 -0.7,-6.65l0,0q-0.35,-0.5 -0.9,-0.5l0,0q-0.95,0 -0.95,1.35l0,0l0,19.65q0,0.55 -2.85,0.87q-2.85,0.33 -5.88,0.33q-3.02,0 -3.9,-0.28q-0.87,-0.27 -0.87,-0.92l0,0l0,-24.65q0,-1.05 2.87,-2.1q2.88,-1.05 6.08,-1.05q3.2,0 3.6,1.85l0,0l0.45,2.2l0.35,0q1.45,-2.85 4.8,-4.05l0,0q1.4,-0.45 3.6,-0.45l0,0q4.4,0 6.4,4.5l0,0q0.65,-1.5 3.25,-3q2.6,-1.5 5.75,-1.5l0,0q4.95,0 6.67,3.07q1.73,3.08 1.73,9.88zm49.05,0l0,0l0,15.3q0,0.55 -2.83,0.87q-2.82,0.33 -5.85,0.33q-3.02,0 -3.92,-0.28q-0.9,-0.27 -0.9,-0.92l0,0l0,-13.85q0,-7.15 -1.45,-7.15l0,0q-0.35,0 -0.7,0.3q-0.35,0.3 -0.35,1.05l0,0l0,19.65q0,0.55 -2.83,0.87q-2.82,0.33 -5.87,0.33q-3.05,0 -3.93,-0.28q-0.87,-0.27 -0.87,-0.92l0,0l0,-13.85q0,-5.55 -0.7,-6.65l0,0q-0.35,-0.5 -0.91,-0.5l0,0q-0.94,0 -0.94,1.35l0,0l0,19.65q0,0.55 -2.85,0.87q-2.85,0.33 -5.88,0.33q-3.02,0 -3.9,-0.28q-0.87,-0.27 -0.87,-0.92l0,0l0,-24.65q0,-1.05 2.87,-2.1q2.88,-1.05 6.07,-1.05q3.21,0 3.61,1.85l0,0l0.45,2.2l0.35,0q1.45,-2.85 4.8,-4.05l0,0q1.4,-0.45 3.6,-0.45l0,0q4.4,0 6.4,4.5l0,0q0.65,-1.5 3.25,-3q2.6,-1.5 5.75,-1.5l0,0q4.95,0 6.67,3.07q1.73,3.08 1.73,9.88zm30.14,16.5l0,0l-10.95,0q-2.5,0 -3.35,-0.35q-0.85,-0.35 -0.85,-1.1l0,0l0,-32.15q0,-2.4 14.45,-2.4l0,0q8.3,0 11.45,1.6l0,0q3.2,1.65 4.1,4.2l0,0q0.5,1.5 0.5,3.5l0,0q0,3.9 -1.32,5.85q-1.33,1.95 -2.88,2.2l0,0q2.35,0.5 3.9,2.3q1.55,1.8 1.55,6.1l0,0q0,5 -3.05,7.4l0,0q-2.65,2.1 -8.1,2.65l0,0q-2.3,0.2 -5.45,0.2zm-1.2,-21.8l1.25,0q2.55,0 2.55,-3.4l0,0q0,-1.7 -0.67,-2.53q-0.68,-0.82 -1.53,-0.82l0,0l-1.6,0l0,6.75zm0,7.6l0,6.75l1.25,0q2.55,0 2.55,-3.4l0,0q0,-1.7 -0.67,-2.53q-0.68,-0.82 -1.53,-0.82l0,0l-1.6,0zm34.05,-1.6l0,0l0,14.6q0,0.55 -2.83,0.87q-2.82,0.33 -5.85,0.33q-3.02,0 -3.92,-0.28q-0.9,-0.27 -0.9,-0.92l0,0l0,-24.65q0,-0.95 2.77,-2.05q2.78,-1.1 6.05,-1.1q3.28,0 3.68,1.8l0,0l0.5,2.3l0.35,0q0.7,-1.9 3.35,-3.23q2.65,-1.32 5.3,-1.32q2.65,0 3.72,0.85q1.08,0.85 1.08,2.17q0,1.33 -0.2,3.38q-0.2,2.05 -0.98,4.45q-0.77,2.4 -2.02,2.4l0,0q-0.5,0 -3.15,-0.75q-2.65,-0.75 -4.38,-0.75q-1.72,0 -2.15,0.5q-0.42,0.5 -0.42,1.4zm29.3,0l0,0l0,14.6q0,0.55 -2.83,0.87q-2.82,0.33 -5.85,0.33q-3.02,0 -3.92,-0.28q-0.9,-0.27 -0.9,-0.92l0,0l0,-24.65q0,-0.95 2.77,-2.05q2.78,-1.1 6.05,-1.1q3.28,0 3.68,1.8l0,0l0.5,2.3l0.35,0q0.7,-1.9 3.35,-3.23q2.65,-1.32 5.3,-1.32q2.65,0 3.72,0.85q1.08,0.85 1.08,2.17q0,1.33 -0.2,3.38q-0.2,2.05 -0.98,4.45q-0.77,2.4 -2.02,2.4l0,0q-0.5,0 -3.15,-0.75q-2.65,-0.75 -4.38,-0.75q-1.72,0 -2.15,0.5q-0.42,0.5 -0.42,1.4zm29.29,0l0,0l0,14.6q0,0.55 -2.82,0.87q-2.83,0.33 -5.85,0.33q-3.03,0 -3.93,-0.28q-0.9,-0.27 -0.9,-0.92l0,0l0,-24.65q0,-0.95 2.78,-2.05q2.77,-1.1 6.05,-1.1q3.27,0 3.67,1.8l0,0l0.5,2.3l0.35,0q0.7,-1.9 3.35,-3.23q2.65,-1.32 5.3,-1.32q2.65,0 3.73,0.85q1.07,0.85 1.07,2.17q0,1.33 -0.2,3.38q-0.2,2.05 -0.97,4.45q-0.78,2.4 -2.03,2.4l0,0q-0.5,0 -3.15,-0.75q-2.65,-0.75 -4.37,-0.75q-1.73,0 -2.15,0.5q-0.43,0.5 -0.43,1.4zm25.85,16.25l0,0q-5.6,0 -7.82,-2.9q-2.23,-2.9 -2.23,-10.1l0,0l0,-13.6q0,-1 2.95,-1.93q2.95,-0.92 6.2,-0.92l0,0q4.35,0 4.35,2.25l0,0l0,12.7q0,3.8 0.3,5.52q0.3,1.73 1.5,1.73l0,0q1.6,0 1.6,-1.35l0,0l0,-18q0,-1.05 3.1,-1.95q3.1,-0.9 6.75,-0.9q3.65,0 3.65,1.95l0,0l0,25.75q0,0.7 -3.15,1q-3.15,0.3 -6.2,0.3q-3.05,0 -3.1,-0.8l0,0l-0.5,-3.25l-0.4,0q-0.45,1.8 -1.8,2.95l0,0q-0.7,0.6 -2.07,1.07q-1.38,0.48 -3.13,0.48zm69.4,-16.95l0,0l0,15.3q0,0.55 -2.83,0.87q-2.82,0.33 -5.85,0.33q-3.02,0 -3.92,-0.28q-0.9,-0.27 -0.9,-0.92l0,0l0,-13.85q0,-7.15 -1.45,-7.15l0,0q-0.35,0 -0.7,0.3q-0.35,0.3 -0.35,1.05l0,0l0,19.65q0,0.55 -2.83,0.87q-2.82,0.33 -5.87,0.33q-3.05,0 -3.93,-0.28q-0.87,-0.27 -0.87,-0.92l0,0l0,-13.85q0,-5.55 -0.7,-6.65l0,0q-0.35,-0.5 -0.9,-0.5l0,0q-0.95,0 -0.95,1.35l0,0l0,19.65q0,0.55 -2.85,0.87q-2.85,0.33 -5.88,0.33q-3.02,0 -3.9,-0.28q-0.87,-0.27 -0.87,-0.92l0,0l0,-24.65q0,-1.05 2.87,-2.1q2.88,-1.05 6.08,-1.05q3.2,0 3.6,1.85l0,0l0.45,2.2l0.35,0q1.45,-2.85 4.8,-4.05l0,0q1.4,-0.45 3.6,-0.45l0,0q4.4,0 6.4,4.5l0,0q0.65,-1.5 3.25,-3q2.6,-1.5 5.75,-1.5l0,0q4.95,0 6.67,3.07q1.73,3.08 1.73,9.88zm49.05,0l0,0l0,15.3q0,0.55 -2.83,0.87q-2.82,0.33 -5.85,0.33q-3.02,0 -3.92,-0.28q-0.9,-0.27 -0.9,-0.92l0,0l0,-13.85q0,-7.15 -1.45,-7.15l0,0q-0.35,0 -0.7,0.3q-0.35,0.3 -0.35,1.05l0,0l0,19.65q0,0.55 -2.83,0.87q-2.82,0.33 -5.87,0.33q-3.05,0 -3.93,-0.28q-0.87,-0.27 -0.87,-0.92l0,0l0,-13.85q0,-5.55 -0.7,-6.65l0,0q-0.35,-0.5 -0.9,-0.5l0,0q-0.95,0 -0.95,1.35l0,0l0,19.65q0,0.55 -2.85,0.87q-2.85,0.33 -5.88,0.33q-3.02,0 -3.9,-0.28q-0.87,-0.27 -0.87,-0.92l0,0l0,-24.65q0,-1.05 2.87,-2.1q2.88,-1.05 6.08,-1.05q3.2,0 3.6,1.85l0,0l0.45,2.2l0.35,0q1.45,-2.85 4.8,-4.05l0,0q1.4,-0.45 3.6,-0.45l0,0q4.4,0 6.4,4.5l0,0q0.65,-1.5 3.25,-3q2.6,-1.5 5.75,-1.5l0,0q4.95,0 6.67,3.07q1.73,3.08 1.73,9.88z" data-fill-palette-color="secondary" fill="#000000" id="svg_128" transform="matrix(1,0,0,1,0,0)"/>
                </svg>
               </g>
              </svg>
             </g>
            </svg>
           </g>
          </svg>
         </g>
         <g id="svg_65">
          <svg fill="#000000" height="129.74" id="svg_129" viewBox="0 0 192.2967406750866 129.73645754689642" width="192.3">
           <g id="svg_130">
            <svg class="icon-icon-0" data-fill-palette-color="accent" enable-background="new 0 0 100 100" fill="#000000" height="129.74" id="svg_137" version="1.1" viewBox="4.927999973297119 19.75897789001465 89.65300750732422 60.48601531982422" width="192.3" x="0" xml:space="preserve" xmlns="http://www.w3.org/2000/svg" xmlns:xlink="http://www.w3.org/1999/xlink" y="0">
             <path d="m92.03,51.42c-0.02,0.38 -0.02,0.76 -0.06,1.14c0.83,0.59 2.37,1.25 2.3,1.75c-0.07,0.49 -1.74,0.7 -2.69,1.04c-0.07,0.37 -0.17,0.73 -0.26,1.1c0.73,0.71 2.18,1.6 2.04,2.08c-0.14,0.48 -1.85,0.44 -2.84,0.64c-0.12,0.36 -0.25,0.71 -0.39,1.06c0.62,0.81 1.93,1.89 1.72,2.34c-0.21,0.46 -1.88,0.18 -2.89,0.23c-0.18,0.34 -0.36,0.67 -0.55,1c0.5,0.88 1.64,2.14 1.36,2.56c-0.27,0.42 -1.89,-0.1 -2.89,-0.19c-0.22,0.31 -0.45,0.61 -0.68,0.91c0.37,0.94 1.32,2.35 0.99,2.73c-0.33,0.37 -1.86,-0.36 -2.84,-0.59c-0.26,0.27 -0.53,0.54 -0.8,0.8c0.23,0.98 0.96,2.51 0.59,2.84c-0.38,0.33 -1.79,-0.62 -2.73,-0.99c-0.3,0.23 -0.6,0.45 -0.91,0.67c0.09,1.01 0.61,2.63 0.19,2.9c-0.43,0.28 -1.69,-0.86 -2.57,-1.36c-0.32,0.19 -0.65,0.37 -0.99,0.55c-0.05,1.01 0.23,2.68 -0.23,2.89c-0.45,0.2 -1.54,-1.1 -2.34,-1.72c-0.35,0.14 -0.7,0.26 -1.06,0.39c-0.2,0.99 -0.16,2.7 -0.64,2.84c-0.48,0.14 -1.37,-1.32 -2.08,-2.05c-0.37,0.09 -0.73,0.19 -1.1,0.27c-0.34,0.95 -0.55,2.62 -1.04,2.69c-0.49,0.07 -1.16,-1.48 -1.75,-2.3c-0.37,0.03 -0.75,0.04 -1.13,0.06c-0.47,0.89 -0.92,2.55 -1.43,2.55s-0.95,-1.66 -1.42,-2.55c-0.38,-0.02 -0.76,-0.03 -1.13,-0.06c-0.6,0.82 -1.26,2.37 -1.75,2.3c-0.5,-0.07 -0.71,-1.74 -1.04,-2.69c-0.38,-0.08 -0.74,-0.18 -1.11,-0.27c-0.7,0.73 -1.59,2.19 -2.07,2.05c-0.49,-0.15 -0.45,-1.85 -0.65,-2.84c-0.36,-0.13 -0.71,-0.25 -1.06,-0.39c-0.8,0.62 -1.89,1.92 -2.34,1.72c-0.46,-0.21 -0.18,-1.88 -0.23,-2.89c-0.34,-0.18 -0.66,-0.36 -0.99,-0.55c-0.88,0.5 -2.14,1.64 -2.56,1.36c-0.43,-0.27 0.09,-1.89 0.18,-2.9c-0.31,-0.22 -0.61,-0.44 -0.9,-0.68c-0.95,0.37 -2.36,1.32 -2.74,0.99c-0.37,-0.32 0.36,-1.85 0.6,-2.84c-0.28,-0.26 -0.54,-0.52 -0.81,-0.8c-0.98,0.23 -2.51,0.97 -2.84,0.59c-0.32,-0.38 0.63,-1.79 0.99,-2.73c-0.23,-0.3 -0.45,-0.6 -0.67,-0.9c-1.01,0.09 -2.63,0.6 -2.9,0.18c-0.27,-0.42 0.87,-1.68 1.36,-2.56c-0.18,-0.33 -0.37,-0.66 -0.54,-0.99c-1.01,-0.05 -2.68,0.22 -2.89,-0.24c-0.21,-0.45 1.1,-1.53 1.72,-2.33c-0.14,-0.35 -0.27,-0.71 -0.39,-1.06c-0.99,-0.2 -2.7,-0.16 -2.84,-0.65c-0.14,-0.48 1.31,-1.37 2.04,-2.07c-0.09,-0.37 -0.19,-0.73 -0.26,-1.11c-0.95,-0.33 -2.62,-0.54 -2.7,-1.03c-0.06,-0.49 1.48,-1.16 2.3,-1.75c-0.03,-0.38 -0.03,-0.76 -0.05,-1.13c-0.9,-0.48 -2.55,-0.92 -2.55,-1.43c0,-0.51 1.65,-0.95 2.55,-1.43c0.02,-0.37 0.02,-0.75 0.05,-1.13c-0.82,-0.59 -2.37,-1.25 -2.3,-1.74c0.07,-0.5 1.75,-0.71 2.7,-1.05c0.07,-0.37 0.17,-0.74 0.26,-1.1c-0.73,-0.71 -2.18,-1.6 -2.04,-2.08c0.14,-0.48 1.85,-0.45 2.84,-0.64c0.12,-0.36 0.25,-0.71 0.39,-1.06c-0.62,-0.8 -1.93,-1.89 -1.72,-2.34c0.21,-0.46 1.88,-0.18 2.89,-0.23c0.17,-0.34 0.36,-0.67 0.55,-0.99c-0.5,-0.88 -1.64,-2.14 -1.37,-2.57c0.27,-0.42 1.89,0.1 2.9,0.19c0.22,-0.31 0.45,-0.61 0.68,-0.91c-0.37,-0.94 -1.32,-2.35 -0.99,-2.73c0.33,-0.38 1.85,0.36 2.84,0.59c0.26,-0.27 0.53,-0.54 0.8,-0.8c-0.23,-0.98 -0.97,-2.51 -0.59,-2.84c0.38,-0.33 1.79,0.62 2.73,0.99c0.3,-0.23 0.6,-0.46 0.9,-0.68c-0.08,-1 -0.6,-2.62 -0.18,-2.9c0.42,-0.27 1.68,0.87 2.56,1.37c0.33,-0.19 0.66,-0.37 0.99,-0.55c0.06,-1.01 -0.22,-2.68 0.24,-2.89c0.45,-0.21 1.53,1.1 2.34,1.72c0.34,-0.14 0.7,-0.26 1.06,-0.39c0.19,-0.99 0.16,-2.69 0.64,-2.84c0.48,-0.14 1.37,1.32 2.07,2.04c0.37,-0.08 0.74,-0.18 1.11,-0.25c0.34,-0.96 0.54,-2.63 1.04,-2.7c0.49,-0.07 1.16,1.48 1.75,2.3c0.37,-0.03 0.75,-0.04 1.13,-0.06c0.47,-0.89 0.92,-2.54 1.42,-2.54s0.96,1.65 1.43,2.54c0.38,0.02 0.76,0.03 1.13,0.06c0.59,-0.82 1.26,-2.37 1.75,-2.3c0.5,0.07 0.71,1.74 1.04,2.7c0.38,0.07 0.74,0.17 1.11,0.25c0.7,-0.72 1.59,-2.18 2.07,-2.03c0.49,0.14 0.45,1.84 0.65,2.83c0.35,0.13 0.71,0.25 1.06,0.39c0.8,-0.62 1.88,-1.92 2.34,-1.72c0.46,0.21 0.18,1.88 0.23,2.89c0.33,0.18 0.66,0.36 0.99,0.55c0.88,-0.5 2.14,-1.64 2.56,-1.37c0.43,0.28 -0.09,1.9 -0.18,2.91c0.31,0.22 0.61,0.44 0.91,0.67c0.94,-0.37 2.35,-1.31 2.73,-0.99c0.37,0.33 -0.36,1.86 -0.6,2.84c0.28,0.26 0.54,0.53 0.81,0.8c0.98,-0.23 2.51,-0.96 2.84,-0.58c0.32,0.37 -0.62,1.78 -0.99,2.73c0.23,0.29 0.45,0.59 0.67,0.9c1.01,-0.09 2.63,-0.61 2.9,-0.18c0.27,0.42 -0.86,1.67 -1.36,2.56c0.19,0.32 0.37,0.65 0.55,0.99c1.01,0.05 2.68,-0.22 2.88,0.23c0.21,0.46 -1.09,1.54 -1.71,2.34c0.14,0.35 0.26,0.7 0.39,1.06c0.99,0.2 2.69,0.16 2.83,0.65c0.15,0.47 -1.31,1.36 -2.04,2.07c0.09,0.37 0.19,0.73 0.26,1.11c0.96,0.33 2.63,0.54 2.7,1.03c0.07,0.49 -1.48,1.16 -2.3,1.75c0.03,0.37 0.04,0.75 0.06,1.13c0.89,0.47 2.54,0.92 2.54,1.43c0,0.51 -1.65,0.95 -2.55,1.42zm-27.7,-21.65c-11.17,0 -20.23,9.06 -20.23,20.23c0,11.17 9.06,20.23 20.23,20.23c11.18,0 20.23,-9.06 20.23,-20.23c0,-11.17 -9.05,-20.23 -20.23,-20.23zm-0.09,13.47l0,-10.27c-3.74,0 -7.19,1.21 -10,3.26l6.03,8.31c1.12,-0.82 2.49,-1.3 3.97,-1.3zm-6.76,6.76c0,-0.73 0.12,-1.43 0.33,-2.09l-9.76,-3.17c-0.54,1.66 -0.83,3.42 -0.83,5.26c0,1.83 0.29,3.6 0.83,5.26l9.76,-3.17c-0.21,-0.66 -0.33,-1.36 -0.33,-2.09zm13.19,-2.09l9.77,-3.17c-1.12,-3.45 -3.32,-6.42 -6.19,-8.51l-6.04,8.31c1.14,0.83 2.02,2 2.46,3.37zm-2.46,7.4l6.04,8.31c2.87,-2.09 5.07,-5.06 6.18,-8.51l-9.76,-3.17c-0.44,1.37 -1.32,2.54 -2.46,3.37zm-3.88,-9.28c-2.1,0 -3.81,1.71 -3.81,3.82s1.71,3.81 3.81,3.81c2.11,0 3.82,-1.71 3.82,-3.81s-1.71,-3.82 -3.82,-3.82zm-10.09,17.59c2.81,2.05 6.26,3.25 10,3.25l0,-10.26c-1.48,0 -2.85,-0.48 -3.97,-1.3l-6.03,8.31z" data-fill-palette-color="accent" fill="#000000" id="svg_146"/>
             <g data-fill-palette-color="accent" fill="#093a3e" id="svg_138">
              <path d="m28.91,40.08l-2.56,0c-1.07,0 -1.93,-0.87 -1.93,-1.94c0,-1.06 0.86,-1.93 1.93,-1.93l2.56,0c1.06,0 1.93,0.87 1.93,1.93c0,1.07 -0.87,1.94 -1.93,1.94z" data-fill-palette-color="accent" fill="#000000" id="svg_145"/>
              <path d="m26.95,51.93l-8.08,0c-1.07,0 -1.93,-0.86 -1.93,-1.93c0,-1.07 0.86,-1.93 1.93,-1.93l8.08,0c1.06,0 1.93,0.86 1.93,1.93c0,1.07 -0.87,1.93 -1.93,1.93z" data-fill-palette-color="accent" fill="#000000" id="svg_144"/>
              <path d="m24.98,63.78l-18.12,0c-1.07,0 -1.93,-0.86 -1.93,-1.93s0.86,-1.93 1.93,-1.93l18.12,0c1.07,0 1.94,0.87 1.94,1.93s-0.87,1.93 -1.94,1.93z" data-fill-palette-color="accent" fill="#000000" id="svg_143"/>
             </g>
            </svg>
           </g>
          </svg>
         </g>
        </svg>
       </g>
      </svg>
     </g>
     <rect fill="#000000" height="85.15" id="svg_8" width="395.52"/>
    </g>
   </svg>
  </g>
  <g id="svg_182" transform="matrix(1 0 0 1 0 0) matrix(0.7 0 0 0.7 149.576 425.233)" x="28.57" y="-567.86">
   <svg data-background-color="#ffffff" height="214" id="svg_147" preserveAspectRatio="xMidYMid meet" viewBox="0 0 396 85" width="1000" x="31.43" xmlns="http://www.w3.org/2000/svg" xmlns:xlink="http://www.w3.org/1999/xlink" y="-570.72">
    <g id="svg_148" transform="matrix(1,0,0,1,0.2400000000000091,-0.07537330890187377)">
     <g id="svg_150">
      <svg height="85.15" id="svg_178" viewBox="0 0 395.52 85.15073705878054" width="395.52">
       <g id="svg_179">
        <svg height="85.15" id="svg_206" viewBox="0 0 602.6179627021462 129.73645754689642" width="395.52">
         <g id="svg_216" transform="matrix(1,0,0,1,207.09796270214622,17.930291889621728)">
          <svg height="93.88" id="svg_231" viewBox="0 0 395.52 93.87587376765296" width="395.52">
           <g id="svg_232">
            <svg height="93.88" id="svg_245" viewBox="0 0 395.52 93.87587376765296" width="395.52">
             <g id="svg_251">
              <svg height="62.7" id="svg_257" viewBox="0 0 395.52 62.69685197588746" width="395.52">
               <g id="svg_258" transform="matrix(1,0,0,1,0,0)">
                <svg data-palette-color="#3aafb9" height="62.7" id="svg_262" viewBox="-0.05000000447034836 -34.900001525878906 224.6300048828125 35.5" width="395.52">
                 <g class="undefined-text-0" data-fill-palette-color="primary" id="svg_263">
                  <path d="m-0.05,0l10.9,-34.3l5.65,0l10.9,34.3l-4.75,0l-2.35,-7.65l-13.6,0l-2.35,7.65l-4.4,0zm7.95,-11.65l11.15,0l-4.65,-15.25q-0.35,-1.1 -0.8,-3.8l0,0l-0.2,0q-0.45,2.75 -0.8,3.8l0,0l-4.7,15.25zm34.25,12.25q-5.35,0 -8.33,-3.03q-2.97,-3.02 -2.97,-8.72l0,0l0,-23.15l4.4,0l0,23.4q0,3.6 1.82,5.52q1.83,1.93 5.08,1.93l0,0q3.25,0 5.07,-1.93q1.83,-1.92 1.83,-5.52l0,0l0,-23.4l4.4,0l0,23.15q0,5.7 -2.98,8.72q-2.97,3.03 -8.32,3.03l0,0zm25.1,-0.6l0,-30.3l-9.35,0l0,-4l23.1,0l0,4l-9.35,0l0,30.3l-4.4,0zm30.69,0.6q-6.4,0 -9.95,-4.5q-3.55,-4.5 -3.55,-13.25l0,0q0,-8.75 3.55,-13.25q3.55,-4.5 9.95,-4.5l0,0q6.4,0 9.95,4.5q3.55,4.5 3.55,13.25l0,0q0,8.75 -3.55,13.25q-3.55,4.5 -9.95,4.5l0,0zm0,-4.05q4.2,0 6.55,-3.15q2.35,-3.15 2.35,-9.3l0,0l0,-2.5q0,-6.15 -2.35,-9.3q-2.35,-3.15 -6.55,-3.15l0,0q-4.2,0 -6.55,3.15q-2.35,3.15 -2.35,9.3l0,0l0,2.5q0,6.15 2.35,9.3q2.35,3.15 6.55,3.15l0,0zm19.2,3.45l0,-34.3l13,0q3.85,0 6.35,2.32q2.5,2.33 2.5,6.08l0,0q0,2.85 -1.47,4.97q-1.48,2.13 -3.78,2.93l0,0l0,0.2q2.65,0.8 4.35,3.15q1.7,2.35 1.7,5.55l0,0q0,2.8 -1.3,4.85q-1.3,2.05 -3.5,3.15q-2.2,1.1 -4.85,1.1l0,0l-13,0zm4.4,-19.55l7.3,0q2.45,0 4,-1.58q1.55,-1.57 1.55,-3.82l0,0q0,-2.65 -1.4,-4q-1.4,-1.35 -3.85,-1.35l0,0l-7.6,0l0,10.75zm0,15.55l8,0q2.5,0 4.08,-1.5q1.57,-1.5 1.57,-4.2l0,0q0,-2.4 -1.65,-4.13q-1.65,-1.72 -4.3,-1.72l0,0l-7.7,0l0,11.55zm23.2,4l0,-34.3l4.4,0l0,30.3l14,0l0,4l-18.4,0zm35.25,0.6q-6.4,0 -9.95,-4.5q-3.55,-4.5 -3.55,-13.25l0,0q0,-8.75 3.55,-13.25q3.55,-4.5 9.95,-4.5l0,0q6.4,0 9.95,4.5q3.55,4.5 3.55,13.25l0,0q0,8.75 -3.55,13.25q-3.55,4.5 -9.95,4.5l0,0zm0,-4.05q4.2,0 6.55,-3.15q2.35,-3.15 2.35,-9.3l0,0l0,-2.5q0,-6.15 -2.35,-9.3q-2.35,-3.15 -6.55,-3.15l0,0q-4.2,0 -6.55,3.15q-2.35,3.15 -2.35,9.3l0,0l0,2.5q0,6.15 2.35,9.3q2.35,3.15 6.55,3.15l0,0zm31.19,-10.55l0,-3.85l13.4,0l0,17.85l-2.9,0l-0.95,-3.8q-3,4.4 -8.85,4.4l0,0q-6.55,0 -10.02,-4.45q-3.48,-4.45 -3.48,-13.3l0,0q0,-8.75 3.6,-13.25q3.6,-4.5 10.15,-4.5l0,0q5.6,0 9.03,3.15q3.42,3.15 3.42,9.15l0,0l-4.5,0q0,-4.15 -2.12,-6.2q-2.13,-2.05 -5.83,-2.05l0,0q-4.35,0 -6.75,3.15q-2.4,3.15 -2.4,9.3l0,0l0,2.5q0,6.2 2.28,9.32q2.27,3.13 6.62,3.13l0,0q4.25,0 6.23,-2.4q1.97,-2.4 1.97,-7.35l0,0l0,-0.8l-8.9,0z" data-fill-palette-color="primary" fill="#ffffff" id="svg_264"/>
                 </g>
                </svg>
               </g>
              </svg>
             </g>
             <g id="svg_246" transform="matrix(1,0,0,1,0,77.49807400294708)">
              <svg height="16.38" id="svg_265" viewBox="0 0 232.209792 16.377799764705884" width="232.21">
               <g id="svg_266" transform="matrix(1,0,0,1,0,0)">
                <svg data-palette-color="#093a3e" height="16.38" id="svg_269" viewBox="2 -36 516.77001953125 36.45000076293945" width="232.21">
                 <path class="undefined-text-1" d="m17.15,0l0,0l-10.95,0q-2.5,0 -3.35,-0.35q-0.85,-0.35 -0.85,-1.1l0,0l0,-32.15q0,-2.4 14.45,-2.4l0,0q8.3,0 11.45,1.6l0,0q3.2,1.65 4.1,4.2l0,0q0.5,1.5 0.5,3.5l0,0q0,3.9 -1.32,5.85q-1.33,1.95 -2.88,2.2l0,0q2.35,0.5 3.9,2.3q1.55,1.8 1.55,6.1l0,0q0,5 -3.05,7.4l0,0q-2.65,2.1 -8.1,2.65l0,0q-2.3,0.2 -5.45,0.2zm-1.2,-21.8l1.25,0q2.55,0 2.55,-3.4l0,0q0,-1.7 -0.68,-2.53q-0.67,-0.82 -1.52,-0.82l0,0l-1.6,0l0,6.75zm0,7.6l0,6.75l1.25,0q2.55,0 2.55,-3.4l0,0q0,-1.7 -0.68,-2.53q-0.67,-0.82 -1.52,-0.82l0,0l-1.6,0zm34.05,-1.6l0,0l0,14.6q0,0.55 -2.83,0.87q-2.82,0.33 -5.85,0.33q-3.02,0 -3.92,-0.28q-0.9,-0.27 -0.9,-0.92l0,0l0,-24.65q0,-0.95 2.77,-2.05q2.78,-1.1 6.05,-1.1q3.28,0 3.68,1.8l0,0l0.5,2.3l0.35,0q0.7,-1.9 3.35,-3.23q2.65,-1.32 5.3,-1.32q2.65,0 3.72,0.85q1.08,0.85 1.08,2.17q0,1.33 -0.2,3.38q-0.2,2.05 -0.98,4.45q-0.77,2.4 -2.02,2.4l0,0q-0.5,0 -3.15,-0.75q-2.65,-0.75 -4.38,-0.75q-1.72,0 -2.15,0.5q-0.42,0.5 -0.42,1.4zm29.3,0l0,0l0,14.6q0,0.55 -2.83,0.87q-2.82,0.33 -5.85,0.33q-3.03,0 -3.92,-0.28q-0.9,-0.27 -0.9,-0.92l0,0l0,-24.65q0,-0.95 2.77,-2.05q2.77,-1.1 6.05,-1.1q3.28,0 3.68,1.8l0,0l0.5,2.3l0.35,0q0.69,-1.9 3.35,-3.23q2.65,-1.32 5.3,-1.32q2.65,0 3.72,0.85q1.07,0.85 1.07,2.17q0,1.33 -0.19,3.38q-0.2,2.05 -0.98,4.45q-0.77,2.4 -2.02,2.4l0,0q-0.5,0 -3.15,-0.75q-2.66,-0.75 -4.38,-0.75q-1.72,0 -2.15,0.5q-0.42,0.5 -0.42,1.4zm29.29,0l0,0l0,14.6q0,0.55 -2.82,0.87q-2.83,0.33 -5.85,0.33q-3.03,0 -3.93,-0.28q-0.9,-0.27 -0.9,-0.92l0,0l0,-24.65q0,-0.95 2.78,-2.05q2.77,-1.1 6.05,-1.1q3.27,0 3.67,1.8l0,0l0.5,2.3l0.35,0q0.7,-1.9 3.35,-3.23q2.65,-1.32 5.3,-1.32q2.65,0 3.73,0.85q1.07,0.85 1.07,2.17q0,1.33 -0.2,3.38q-0.2,2.05 -0.97,4.45q-0.78,2.4 -2.03,2.4l0,0q-0.5,0 -3.15,-0.75q-2.65,-0.75 -4.37,-0.75q-1.73,0 -2.15,0.5q-0.43,0.5 -0.43,1.4zm25.85,16.25l0,0q-5.6,0 -7.83,-2.9q-2.22,-2.9 -2.22,-10.1l0,0l0,-13.6q0,-1 2.95,-1.93q2.95,-0.92 6.2,-0.92l0,0q4.35,0 4.35,2.25l0,0l0,12.7q0,3.8 0.3,5.52q0.3,1.73 1.5,1.73l0,0q1.6,0 1.6,-1.35l0,0l0,-18q0,-1.05 3.1,-1.95q3.1,-0.9 6.75,-0.9q3.65,0 3.65,1.95l0,0l0,25.75q0,0.7 -3.15,1q-3.15,0.3 -6.2,0.3q-3.05,0 -3.1,-0.8l0,0l-0.5,-3.25l-0.4,0q-0.45,1.8 -1.8,2.95l0,0q-0.7,0.6 -2.08,1.07q-1.37,0.48 -3.12,0.48zm69.4,-16.95l0,0l0,15.3q0,0.55 -2.83,0.87q-2.82,0.33 -5.85,0.33q-3.02,0 -3.92,-0.28q-0.9,-0.27 -0.9,-0.92l0,0l0,-13.85q0,-7.15 -1.45,-7.15l0,0q-0.35,0 -0.7,0.3q-0.35,0.3 -0.35,1.05l0,0l0,19.65q0,0.55 -2.83,0.87q-2.82,0.33 -5.87,0.33q-3.05,0 -3.93,-0.28q-0.87,-0.27 -0.87,-0.92l0,0l0,-13.85q0,-5.55 -0.7,-6.65l0,0q-0.35,-0.5 -0.9,-0.5l0,0q-0.95,0 -0.95,1.35l0,0l0,19.65q0,0.55 -2.85,0.87q-2.85,0.33 -5.88,0.33q-3.02,0 -3.9,-0.28q-0.87,-0.27 -0.87,-0.92l0,0l0,-24.65q0,-1.05 2.87,-2.1q2.88,-1.05 6.08,-1.05q3.2,0 3.6,1.85l0,0l0.45,2.2l0.35,0q1.45,-2.85 4.8,-4.05l0,0q1.4,-0.45 3.6,-0.45l0,0q4.4,0 6.4,4.5l0,0q0.65,-1.5 3.25,-3q2.6,-1.5 5.75,-1.5l0,0q4.95,0 6.67,3.07q1.73,3.08 1.73,9.88zm49.05,0l0,0l0,15.3q0,0.55 -2.83,0.87q-2.82,0.33 -5.85,0.33q-3.02,0 -3.92,-0.28q-0.9,-0.27 -0.9,-0.92l0,0l0,-13.85q0,-7.15 -1.45,-7.15l0,0q-0.35,0 -0.7,0.3q-0.35,0.3 -0.35,1.05l0,0l0,19.65q0,0.55 -2.83,0.87q-2.82,0.33 -5.87,0.33q-3.05,0 -3.93,-0.28q-0.87,-0.27 -0.87,-0.92l0,0l0,-13.85q0,-5.55 -0.7,-6.65l0,0q-0.35,-0.5 -0.91,-0.5l0,0q-0.94,0 -0.94,1.35l0,0l0,19.65q0,0.55 -2.85,0.87q-2.85,0.33 -5.88,0.33q-3.02,0 -3.9,-0.28q-0.87,-0.27 -0.87,-0.92l0,0l0,-24.65q0,-1.05 2.87,-2.1q2.88,-1.05 6.07,-1.05q3.21,0 3.61,1.85l0,0l0.45,2.2l0.35,0q1.45,-2.85 4.8,-4.05l0,0q1.4,-0.45 3.6,-0.45l0,0q4.4,0 6.4,4.5l0,0q0.65,-1.5 3.25,-3q2.6,-1.5 5.75,-1.5l0,0q4.95,0 6.67,3.07q1.73,3.08 1.73,9.88zm30.14,16.5l0,0l-10.95,0q-2.5,0 -3.35,-0.35q-0.85,-0.35 -0.85,-1.1l0,0l0,-32.15q0,-2.4 14.45,-2.4l0,0q8.3,0 11.45,1.6l0,0q3.2,1.65 4.1,4.2l0,0q0.5,1.5 0.5,3.5l0,0q0,3.9 -1.32,5.85q-1.33,1.95 -2.88,2.2l0,0q2.35,0.5 3.9,2.3q1.55,1.8 1.55,6.1l0,0q0,5 -3.05,7.4l0,0q-2.65,2.1 -8.1,2.65l0,0q-2.3,0.2 -5.45,0.2zm-1.2,-21.8l1.25,0q2.55,0 2.55,-3.4l0,0q0,-1.7 -0.67,-2.53q-0.68,-0.82 -1.53,-0.82l0,0l-1.6,0l0,6.75zm0,7.6l0,6.75l1.25,0q2.55,0 2.55,-3.4l0,0q0,-1.7 -0.67,-2.53q-0.68,-0.82 -1.53,-0.82l0,0l-1.6,0zm34.05,-1.6l0,0l0,14.6q0,0.55 -2.83,0.87q-2.82,0.33 -5.85,0.33q-3.02,0 -3.92,-0.28q-0.9,-0.27 -0.9,-0.92l0,0l0,-24.65q0,-0.95 2.77,-2.05q2.78,-1.1 6.05,-1.1q3.28,0 3.68,1.8l0,0l0.5,2.3l0.35,0q0.7,-1.9 3.35,-3.23q2.65,-1.32 5.3,-1.32q2.65,0 3.72,0.85q1.08,0.85 1.08,2.17q0,1.33 -0.2,3.38q-0.2,2.05 -0.98,4.45q-0.77,2.4 -2.02,2.4l0,0q-0.5,0 -3.15,-0.75q-2.65,-0.75 -4.38,-0.75q-1.72,0 -2.15,0.5q-0.42,0.5 -0.42,1.4zm29.3,0l0,0l0,14.6q0,0.55 -2.83,0.87q-2.82,0.33 -5.85,0.33q-3.02,0 -3.92,-0.28q-0.9,-0.27 -0.9,-0.92l0,0l0,-24.65q0,-0.95 2.77,-2.05q2.78,-1.1 6.05,-1.1q3.28,0 3.68,1.8l0,0l0.5,2.3l0.35,0q0.7,-1.9 3.35,-3.23q2.65,-1.32 5.3,-1.32q2.65,0 3.72,0.85q1.08,0.85 1.08,2.17q0,1.33 -0.2,3.38q-0.2,2.05 -0.98,4.45q-0.77,2.4 -2.02,2.4l0,0q-0.5,0 -3.15,-0.75q-2.65,-0.75 -4.38,-0.75q-1.72,0 -2.15,0.5q-0.42,0.5 -0.42,1.4zm29.29,0l0,0l0,14.6q0,0.55 -2.82,0.87q-2.83,0.33 -5.85,0.33q-3.03,0 -3.93,-0.28q-0.9,-0.27 -0.9,-0.92l0,0l0,-24.65q0,-0.95 2.78,-2.05q2.77,-1.1 6.05,-1.1q3.27,0 3.67,1.8l0,0l0.5,2.3l0.35,0q0.7,-1.9 3.35,-3.23q2.65,-1.32 5.3,-1.32q2.65,0 3.73,0.85q1.07,0.85 1.07,2.17q0,1.33 -0.2,3.38q-0.2,2.05 -0.97,4.45q-0.78,2.4 -2.03,2.4l0,0q-0.5,0 -3.15,-0.75q-2.65,-0.75 -4.37,-0.75q-1.73,0 -2.15,0.5q-0.43,0.5 -0.43,1.4zm25.85,16.25l0,0q-5.6,0 -7.82,-2.9q-2.23,-2.9 -2.23,-10.1l0,0l0,-13.6q0,-1 2.95,-1.93q2.95,-0.92 6.2,-0.92l0,0q4.35,0 4.35,2.25l0,0l0,12.7q0,3.8 0.3,5.52q0.3,1.73 1.5,1.73l0,0q1.6,0 1.6,-1.35l0,0l0,-18q0,-1.05 3.1,-1.95q3.1,-0.9 6.75,-0.9q3.65,0 3.65,1.95l0,0l0,25.75q0,0.7 -3.15,1q-3.15,0.3 -6.2,0.3q-3.05,0 -3.1,-0.8l0,0l-0.5,-3.25l-0.4,0q-0.45,1.8 -1.8,2.95l0,0q-0.7,0.6 -2.07,1.07q-1.38,0.48 -3.13,0.48zm69.4,-16.95l0,0l0,15.3q0,0.55 -2.83,0.87q-2.82,0.33 -5.85,0.33q-3.02,0 -3.92,-0.28q-0.9,-0.27 -0.9,-0.92l0,0l0,-13.85q0,-7.15 -1.45,-7.15l0,0q-0.35,0 -0.7,0.3q-0.35,0.3 -0.35,1.05l0,0l0,19.65q0,0.55 -2.83,0.87q-2.82,0.33 -5.87,0.33q-3.05,0 -3.93,-0.28q-0.87,-0.27 -0.87,-0.92l0,0l0,-13.85q0,-5.55 -0.7,-6.65l0,0q-0.35,-0.5 -0.9,-0.5l0,0q-0.95,0 -0.95,1.35l0,0l0,19.65q0,0.55 -2.85,0.87q-2.85,0.33 -5.88,0.33q-3.02,0 -3.9,-0.28q-0.87,-0.27 -0.87,-0.92l0,0l0,-24.65q0,-1.05 2.87,-2.1q2.88,-1.05 6.08,-1.05q3.2,0 3.6,1.85l0,0l0.45,2.2l0.35,0q1.45,-2.85 4.8,-4.05l0,0q1.4,-0.45 3.6,-0.45l0,0q4.4,0 6.4,4.5l0,0q0.65,-1.5 3.25,-3q2.6,-1.5 5.75,-1.5l0,0q4.95,0 6.67,3.07q1.73,3.08 1.73,9.88zm49.05,0l0,0l0,15.3q0,0.55 -2.83,0.87q-2.82,0.33 -5.85,0.33q-3.02,0 -3.92,-0.28q-0.9,-0.27 -0.9,-0.92l0,0l0,-13.85q0,-7.15 -1.45,-7.15l0,0q-0.35,0 -0.7,0.3q-0.35,0.3 -0.35,1.05l0,0l0,19.65q0,0.55 -2.83,0.87q-2.82,0.33 -5.87,0.33q-3.05,0 -3.93,-0.28q-0.87,-0.27 -0.87,-0.92l0,0l0,-13.85q0,-5.55 -0.7,-6.65l0,0q-0.35,-0.5 -0.9,-0.5l0,0q-0.95,0 -0.95,1.35l0,0l0,19.65q0,0.55 -2.85,0.87q-2.85,0.33 -5.88,0.33q-3.02,0 -3.9,-0.28q-0.87,-0.27 -0.87,-0.92l0,0l0,-24.65q0,-1.05 2.87,-2.1q2.88,-1.05 6.08,-1.05q3.2,0 3.6,1.85l0,0l0.45,2.2l0.35,0q1.45,-2.85 4.8,-4.05l0,0q1.4,-0.45 3.6,-0.45l0,0q4.4,0 6.4,4.5l0,0q0.65,-1.5 3.25,-3q2.6,-1.5 5.75,-1.5l0,0q4.95,0 6.67,3.07q1.73,3.08 1.73,9.88z" data-fill-palette-color="secondary" fill="#ffffff" id="svg_270" transform="matrix(1,0,0,1,0,0)"/>
                </svg>
               </g>
              </svg>
             </g>
            </svg>
           </g>
          </svg>
         </g>
         <g id="svg_207">
          <svg height="129.74" id="svg_271" viewBox="0 0 192.2967406750866 129.73645754689642" width="192.3">
           <g id="svg_272">
            <svg class="icon-icon-0" data-fill-palette-color="accent" enable-background="new 0 0 100 100" height="129.74" id="svg_279" version="1.1" viewBox="4.927999973297119 19.75897789001465 89.65300750732422 60.48601531982422" width="192.3" x="0" xml:space="preserve" xmlns="http://www.w3.org/2000/svg" xmlns:xlink="http://www.w3.org/1999/xlink" y="0">
             <path d="m92.03,51.42c-0.02,0.38 -0.02,0.76 -0.06,1.14c0.83,0.59 2.37,1.25 2.3,1.75c-0.07,0.49 -1.74,0.7 -2.69,1.04c-0.07,0.37 -0.17,0.73 -0.26,1.1c0.73,0.71 2.18,1.6 2.04,2.08c-0.14,0.48 -1.85,0.44 -2.84,0.64c-0.12,0.36 -0.25,0.71 -0.39,1.06c0.62,0.81 1.93,1.89 1.72,2.34c-0.21,0.46 -1.88,0.18 -2.89,0.23c-0.18,0.34 -0.36,0.67 -0.55,1c0.5,0.88 1.64,2.14 1.36,2.56c-0.27,0.42 -1.89,-0.1 -2.89,-0.19c-0.22,0.31 -0.45,0.61 -0.68,0.91c0.37,0.94 1.32,2.35 0.99,2.73c-0.33,0.37 -1.86,-0.36 -2.84,-0.59c-0.26,0.27 -0.53,0.54 -0.8,0.8c0.23,0.98 0.96,2.51 0.59,2.84c-0.38,0.33 -1.79,-0.62 -2.73,-0.99c-0.3,0.23 -0.6,0.45 -0.91,0.67c0.09,1.01 0.61,2.63 0.19,2.9c-0.43,0.28 -1.69,-0.86 -2.57,-1.36c-0.32,0.19 -0.65,0.37 -0.99,0.55c-0.05,1.01 0.23,2.68 -0.23,2.89c-0.45,0.2 -1.54,-1.1 -2.34,-1.72c-0.35,0.14 -0.7,0.26 -1.06,0.39c-0.2,0.99 -0.16,2.7 -0.64,2.84c-0.48,0.14 -1.37,-1.32 -2.08,-2.05c-0.37,0.09 -0.73,0.19 -1.1,0.27c-0.34,0.95 -0.55,2.62 -1.04,2.69c-0.49,0.07 -1.16,-1.48 -1.75,-2.3c-0.37,0.03 -0.75,0.04 -1.13,0.06c-0.47,0.89 -0.92,2.55 -1.43,2.55s-0.95,-1.66 -1.42,-2.55c-0.38,-0.02 -0.76,-0.03 -1.13,-0.06c-0.6,0.82 -1.26,2.37 -1.75,2.3c-0.5,-0.07 -0.71,-1.74 -1.04,-2.69c-0.38,-0.08 -0.74,-0.18 -1.11,-0.27c-0.7,0.73 -1.59,2.19 -2.07,2.05c-0.49,-0.15 -0.45,-1.85 -0.65,-2.84c-0.36,-0.13 -0.71,-0.25 -1.06,-0.39c-0.8,0.62 -1.89,1.92 -2.34,1.72c-0.46,-0.21 -0.18,-1.88 -0.23,-2.89c-0.34,-0.18 -0.66,-0.36 -0.99,-0.55c-0.88,0.5 -2.14,1.64 -2.56,1.36c-0.43,-0.27 0.09,-1.89 0.18,-2.9c-0.31,-0.22 -0.61,-0.44 -0.9,-0.68c-0.95,0.37 -2.36,1.32 -2.74,0.99c-0.37,-0.32 0.36,-1.85 0.6,-2.84c-0.28,-0.26 -0.54,-0.52 -0.81,-0.8c-0.98,0.23 -2.51,0.97 -2.84,0.59c-0.32,-0.38 0.63,-1.79 0.99,-2.73c-0.23,-0.3 -0.45,-0.6 -0.67,-0.9c-1.01,0.09 -2.63,0.6 -2.9,0.18c-0.27,-0.42 0.87,-1.68 1.36,-2.56c-0.18,-0.33 -0.37,-0.66 -0.54,-0.99c-1.01,-0.05 -2.68,0.22 -2.89,-0.24c-0.21,-0.45 1.1,-1.53 1.72,-2.33c-0.14,-0.35 -0.27,-0.71 -0.39,-1.06c-0.99,-0.2 -2.7,-0.16 -2.84,-0.65c-0.14,-0.48 1.31,-1.37 2.04,-2.07c-0.09,-0.37 -0.19,-0.73 -0.26,-1.11c-0.95,-0.33 -2.62,-0.54 -2.7,-1.03c-0.06,-0.49 1.48,-1.16 2.3,-1.75c-0.03,-0.38 -0.03,-0.76 -0.05,-1.13c-0.9,-0.48 -2.55,-0.92 -2.55,-1.43c0,-0.51 1.65,-0.95 2.55,-1.43c0.02,-0.37 0.02,-0.75 0.05,-1.13c-0.82,-0.59 -2.37,-1.25 -2.3,-1.74c0.07,-0.5 1.75,-0.71 2.7,-1.05c0.07,-0.37 0.17,-0.74 0.26,-1.1c-0.73,-0.71 -2.18,-1.6 -2.04,-2.08c0.14,-0.48 1.85,-0.45 2.84,-0.64c0.12,-0.36 0.25,-0.71 0.39,-1.06c-0.62,-0.8 -1.93,-1.89 -1.72,-2.34c0.21,-0.46 1.88,-0.18 2.89,-0.23c0.17,-0.34 0.36,-0.67 0.55,-0.99c-0.5,-0.88 -1.64,-2.14 -1.37,-2.57c0.27,-0.42 1.89,0.1 2.9,0.19c0.22,-0.31 0.45,-0.61 0.68,-0.91c-0.37,-0.94 -1.32,-2.35 -0.99,-2.73c0.33,-0.38 1.85,0.36 2.84,0.59c0.26,-0.27 0.53,-0.54 0.8,-0.8c-0.23,-0.98 -0.97,-2.51 -0.59,-2.84c0.38,-0.33 1.79,0.62 2.73,0.99c0.3,-0.23 0.6,-0.46 0.9,-0.68c-0.08,-1 -0.6,-2.62 -0.18,-2.9c0.42,-0.27 1.68,0.87 2.56,1.37c0.33,-0.19 0.66,-0.37 0.99,-0.55c0.06,-1.01 -0.22,-2.68 0.24,-2.89c0.45,-0.21 1.53,1.1 2.34,1.72c0.34,-0.14 0.7,-0.26 1.06,-0.39c0.19,-0.99 0.16,-2.69 0.64,-2.84c0.48,-0.14 1.37,1.32 2.07,2.04c0.37,-0.08 0.74,-0.18 1.11,-0.25c0.34,-0.96 0.54,-2.63 1.04,-2.7c0.49,-0.07 1.16,1.48 1.75,2.3c0.37,-0.03 0.75,-0.04 1.13,-0.06c0.47,-0.89 0.92,-2.54 1.42,-2.54s0.96,1.65 1.43,2.54c0.38,0.02 0.76,0.03 1.13,0.06c0.59,-0.82 1.26,-2.37 1.75,-2.3c0.5,0.07 0.71,1.74 1.04,2.7c0.38,0.07 0.74,0.17 1.11,0.25c0.7,-0.72 1.59,-2.18 2.07,-2.03c0.49,0.14 0.45,1.84 0.65,2.83c0.35,0.13 0.71,0.25 1.06,0.39c0.8,-0.62 1.88,-1.92 2.34,-1.72c0.46,0.21 0.18,1.88 0.23,2.89c0.33,0.18 0.66,0.36 0.99,0.55c0.88,-0.5 2.14,-1.64 2.56,-1.37c0.43,0.28 -0.09,1.9 -0.18,2.91c0.31,0.22 0.61,0.44 0.91,0.67c0.94,-0.37 2.35,-1.31 2.73,-0.99c0.37,0.33 -0.36,1.86 -0.6,2.84c0.28,0.26 0.54,0.53 0.81,0.8c0.98,-0.23 2.51,-0.96 2.84,-0.58c0.32,0.37 -0.62,1.78 -0.99,2.73c0.23,0.29 0.45,0.59 0.67,0.9c1.01,-0.09 2.63,-0.61 2.9,-0.18c0.27,0.42 -0.86,1.67 -1.36,2.56c0.19,0.32 0.37,0.65 0.55,0.99c1.01,0.05 2.68,-0.22 2.88,0.23c0.21,0.46 -1.09,1.54 -1.71,2.34c0.14,0.35 0.26,0.7 0.39,1.06c0.99,0.2 2.69,0.16 2.83,0.65c0.15,0.47 -1.31,1.36 -2.04,2.07c0.09,0.37 0.19,0.73 0.26,1.11c0.96,0.33 2.63,0.54 2.7,1.03c0.07,0.49 -1.48,1.16 -2.3,1.75c0.03,0.37 0.04,0.75 0.06,1.13c0.89,0.47 2.54,0.92 2.54,1.43c0,0.51 -1.65,0.95 -2.55,1.42zm-27.7,-21.65c-11.17,0 -20.23,9.06 -20.23,20.23c0,11.17 9.06,20.23 20.23,20.23c11.18,0 20.23,-9.06 20.23,-20.23c0,-11.17 -9.05,-20.23 -20.23,-20.23zm-0.09,13.47l0,-10.27c-3.74,0 -7.19,1.21 -10,3.26l6.03,8.31c1.12,-0.82 2.49,-1.3 3.97,-1.3zm-6.76,6.76c0,-0.73 0.12,-1.43 0.33,-2.09l-9.76,-3.17c-0.54,1.66 -0.83,3.42 -0.83,5.26c0,1.83 0.29,3.6 0.83,5.26l9.76,-3.17c-0.21,-0.66 -0.33,-1.36 -0.33,-2.09zm13.19,-2.09l9.77,-3.17c-1.12,-3.45 -3.32,-6.42 -6.19,-8.51l-6.04,8.31c1.14,0.83 2.02,2 2.46,3.37zm-2.46,7.4l6.04,8.31c2.87,-2.09 5.07,-5.06 6.18,-8.51l-9.76,-3.17c-0.44,1.37 -1.32,2.54 -2.46,3.37zm-3.88,-9.28c-2.1,0 -3.81,1.71 -3.81,3.82s1.71,3.81 3.81,3.81c2.11,0 3.82,-1.71 3.82,-3.81s-1.71,-3.82 -3.82,-3.82zm-10.09,17.59c2.81,2.05 6.26,3.25 10,3.25l0,-10.26c-1.48,0 -2.85,-0.48 -3.97,-1.3l-6.03,8.31z" data-fill-palette-color="accent" fill="#ffffff" id="svg_284"/>
             <g data-fill-palette-color="accent" fill="#093a3e" id="svg_280">
              <path d="m28.91,40.08l-2.56,0c-1.07,0 -1.93,-0.87 -1.93,-1.94c0,-1.06 0.86,-1.93 1.93,-1.93l2.56,0c1.06,0 1.93,0.87 1.93,1.93c0,1.07 -0.87,1.94 -1.93,1.94z" data-fill-palette-color="accent" fill="#ffffff" id="svg_283"/>
              <path d="m26.95,51.93l-8.08,0c-1.07,0 -1.93,-0.86 -1.93,-1.93c0,-1.07 0.86,-1.93 1.93,-1.93l8.08,0c1.06,0 1.93,0.86 1.93,1.93c0,1.07 -0.87,1.93 -1.93,1.93z" data-fill-palette-color="accent" fill="#ffffff" id="svg_282"/>
              <path d="m24.98,63.78l-18.12,0c-1.07,0 -1.93,-0.86 -1.93,-1.93s0.86,-1.93 1.93,-1.93l18.12,0c1.07,0 1.94,0.87 1.94,1.93s-0.87,1.93 -1.94,1.93z" data-fill-palette-color="accent" fill="#ffffff" id="svg_281"/>
             </g>
            </svg>
           </g>
          </svg>
         </g>
        </svg>
       </g>
      </svg>
     </g>
     <rect fill="none" height="85.15" id="svg_149" width="395.52"/>
    </g>
   </svg>
  </g>
 </g>
</svg>